<svg xmlns="http://www.w3.org/2000/svg" viewBox="0 0 1000 203.71" width="256" height="53">
    <path fill="#f0ca2f" d="M766,30c-47.82,0-85.28,38.2-85.28,87s37.46,86.76,85.28,86.76S851.45,165.6,851.45,117,813.9,30,766,30Zm0,135.62c-26.45,0-47.17-21.37-47.17-48.65S739.51,68.09,766,68.09,813.33,89.56,813.33,117,792.52,165.6,766,165.6Z"/>
    <path fill="#161616" d="M123.66,80.21l1-1.59c4.91-7.64,7.41-17.29,7.41-28.68C132.1,21.08,112,1.69,82.15,1.69H0V171.62H87c30.65,0,52.91-22.26,52.91-52.92a54.79,54.79,0,0,0-15-37.12ZM38.33,39.59H80.67C92.47,39.59,94,45.12,94,49.94c0,9-3.51,13.74-10.14,13.74H38.33ZM86.8,133.5H38.33V101H86c10.41,0,15.85,11.56,15.85,17.75C101.81,124.65,97.81,133.5,86.8,133.5ZM448.52,1.69H381.44V171.62h67.08c22.47,0,41.7-8.2,55.62-23.71,13.73-15.3,21-36.38,21-60.94,0-24.74-7.26-46-21-61.39C490.24,10,471,1.69,448.52,1.69Zm0,131.81h-29V39.81h29c34.74,0,38.49,33,38.49,47.16C487,101,483.26,133.5,448.52,133.5ZM188.86,171.62H150.75V1.69h38.11Zm456.88-62.26c10.41-5.2,27.88-18.73,27.88-50.95,0-14.79-4.13-28.34-11.61-38.16-6.46-8.47-18.79-18.56-40.88-18.56H536V171.62h38.33V114.7H599.4l39.65,56.92h47.29l-43.1-61ZM620.07,76.59H574.28V39.81h46.85c3.55,0,14.37,0,14.37,18.6C635.5,74.52,627.26,76.59,620.07,76.59ZM946.88,1.69H862.27V171.62H900.6V114.7h46.28c39.21,0,53.12-30.32,53.12-56.29C1000,30.18,983.57,1.69,946.88,1.69Zm-1.06,74.9H900.6V39.81h46.28c10,0,15,6.25,15,18.6S956.63,76.59,945.82,76.59ZM367.42,67.8V171.62H332.5V159.44A85,85,0,0,1,285,173.73c-44.25,0-80.74-33.59-84.88-78.13l-.2-2.17h-.21V87c0-33.11,17.62-62.8,46-77.49a83.62,83.62,0,0,1,18-6.85A87.47,87.47,0,0,1,289.39.11c1.12.05,2.22.15,3.32.24l1,.08a83.14,83.14,0,0,1,54.16,27.14l4,4.23-.08.08.74.82-30,23.57-4.05-4.15a46.41,46.41,0,0,0-12.12-8.91c-.67-.34-1.35-.67-2.21-1.05l-.43-.19c-.55-.24-1.1-.46-1.91-.78L300,40.53c-1-.32-1.9-.6-3.05-.91l-.35-.09c-.55-.14-1.1-.26-1.7-.38l-.78-.17-1.55-.26-1.05-.16-1.4-.17c-.47,0-.94-.09-1.69-.14l-.83-.06c-.86,0-1.73-.08-2.6-.08-26.45,0-47.17,21.46-47.17,48.86s20.72,48.65,47.17,48.65a46.48,46.48,0,0,0,42.3-26.26l1.66-3.44h-28V67.81h66.48Z"/>
</svg>