<svg xmlns="http://www.w3.org/2000/svg" viewBox="0 0 50 52" width="128" height="128">
    <g fill="#5f87ff">
        <path d="M5.7 33.4c-.2.5-.2 1.1-.2 1.7 0 2.5 1.6 4.6 3.8 5.6v.6c0 3.6 3.1 6.5 6.9 6.5.5 0 .9-.1 1.3-.1.9 1.8 2.7 3 5 3 1.9 0 3.5-.9 4.3-2.3h3.1c.4 0 .8-.3.8-.8v-3.5c2.2-.5 4.4-1.4 6.3-2.6l2.5 2.5c.1.1.3.2.6.2s.4-.1.6-.2l4.4-4.4c.3-.3.3-.8 0-1.1L42.6 36c1.2-1.9 2.1-4.1 2.6-6.3h3.5c.4 0 .8-.3.8-.8v-6.2c0-.4-.3-.8-.8-.8h-3.5c-.5-2.2-1.4-4.4-2.6-6.3l2.5-2.5c.3-.3.3-.8 0-1.1l-4.4-4.4c-.3-.3-.8-.3-1.1 0L37 9.9c-1.9-1.2-4.1-2.1-6.3-2.6V3.7c0-.4-.3-.8-.8-.8h-3.8c-.9-1-2.2-1.6-3.7-1.6-1.9 0-3.7 1-4.6 2.6h-1.4c-3.8 0-6.9 2.9-6.9 6.6v.2c-3.3.3-5.8 3-5.8 6.4 0 1.4.5 2.7 1.2 3.8C2.6 22 1 24.5 1 27c0 2.9 2 5.5 4.7 6.4zM29.1 4.5v3.4c0 .4.3.7.6.8 2.4.4 4.8 1.4 6.9 2.8.3.2.7.2 1-.1L40 9l3.3 3.3-2.4 2.4c-.3.3-.3.7-.1 1 1.4 2 2.4 4.4 2.8 6.9.1.4.4.6.8.6h3.4V28h-3.4c-.4 0-.7.3-.8.6-.4 2.4-1.4 4.8-2.8 6.9-.2.3-.2.7.1 1l2.4 2.4-3.3 3.3-2.4-2.4c-.3-.3-.7-.3-1-.1-2 1.4-4.4 2.4-6.9 2.8-.4.1-.6.4-.6.8v3.4h-1.7c.1-.4.2-.9.2-1.4v-8.1c6.1-.4 10.9-5.5 10.9-11.7s-4.8-11.3-10.9-11.7v-7c0-.8-.2-1.6-.5-2.3h2zm-1.5 31.2V15.5c5.2.4 9.4 4.8 9.4 10.1s-4.2 9.7-9.4 10.1zM6 22.1c1.1.9 2.5 1.4 4 1.4.4 0 .8-.3.8-.8s-.3-.8-.8-.8c-2.7 0-4.8-2.2-4.8-4.8 0-2.7 2.2-4.8 4.8-4.8 1.3 0 2.5.5 3.4 1.4.3.3.8.3 1.1 0 .3-.3.3-.8 0-1.1-1-1-2.2-1.6-3.5-1.8v-.3c0-2.8 2.4-5 5.3-5h.8c-.1.4-.1.9-.1 1.3v.7c0 .4.4.7.9.7.4 0 .7-.4.7-.9v-.5c0-2.1 1.7-3.9 3.9-3.9 2 .1 3.5 1.7 3.5 3.9v38.5c0 2.2-1.5 3.7-3.6 3.7-2.2 0-3.9-1.6-3.9-3.7 0-.5.1-1.1.3-1.6.2-.4 0-.9-.4-1-.4-.2-.9 0-1 .4-.3.7-.5 1.5-.5 2.2 0 .2 0 .5.1.7-.3 0-.6.1-.9.1-2.9 0-5.3-2.2-5.3-5V41c.3.1.7.1 1.1.1 1 0 1.9-.2 2.8-.6.4-.2.6-.6.4-1-.2-.4-.6-.6-1-.4-.7.3-1.4.5-2.1.5-2.7 0-4.8-2-4.8-4.5 0-2.4 2-4.4 4.5-4.5.4 0 .8-.4.7-.8 0-.4-.4-.8-.8-.7-2.1.2-4 1.3-5 3-2-.6-3.8-2.5-3.8-4.9-.2-2.3 1.2-4.3 3.2-5.1z"/>
        <path d="M13.1 18.9c.4.1.8.1 1.3.1 2.5 0 5.9-1.1 6.8-5.3.1-.4-.2-.8-.6-.9-.4-.1-.8.2-.9.6-1 4.8-6.1 4-6.3 4-.4-.1-.8.2-.9.6-.1.5.2.9.6.9z"/>
        <path d="M18.9 33.3c-1.7-1-3.4-.5-3.5-.5-.4.1-.7.5-.5 1 .1.4.5.7 1 .6.3-.1 3.1-.7 4.2 3.2.1.4.4.6.8.6h.2c.4-.1.7-.5.6-1-.7-1.9-1.6-3.2-2.8-3.9z"/>
    </g>
</svg>