<svg xmlns="http://www.w3.org/2000/svg" viewBox="0 0 82 84" width="128" height="128">
	<style>
		.st1{fill:#081e2c}
	</style>
	<path fill="#007cba" d="M41 76.8c-18.6 0-33.8-15.2-33.8-33.9C7.2 24.7 21.5 9.8 39.5 9V1.5c0-.6.3-1.1.8-1.3.5-.3 1.1-.2 1.6.1l21.5 14.4c.4.3.7.8.7 1.3s-.3 1-.7 1.3L41.8 31.6c-.5.3-1.1.3-1.6.1-.5-.3-.8-.8-.8-1.3V23C29.2 23.7 21 32.3 21 42.9 21 54 30 63 41 63v3c-12.7 0-23.1-10.4-23.1-23.1S28.3 19.8 41 19.8c.8 0 1.5.7 1.5 1.5v6.2l17.3-11.6L42.5 4.4v6.2c0 .8-.7 1.5-1.5 1.5-17 0-30.8 13.8-30.8 30.9S24 73.8 41 73.8 71.8 60 71.8 42.9h3c0 18.7-15.2 33.9-33.8 33.9z"/>
	<path d="M71 14.9L68.8 17C75.4 24 79 33.2 79 42.9 79 63.9 62 81 41 81S3 63.9 3 42.9H0C0 65.6 18.4 84 41 84s41-18.4 41-41.1c0-10.4-3.9-20.4-11-28z" class="st1"/>
	<path d="M31.2 49c-1.9-2-3-4.6-3-7.3 0-4.6 3.2-8.8 7.9-10.3l-.9-2.9c-6 2-10 7.3-10 13.2 0 3.5 1.4 6.8 3.9 9.4l2.1-2.1z" class="st1"/>
</svg>