<svg xmlns="http://www.w3.org/2000/svg" viewBox="0 0 80 80" width="128" height="128">
	<path fill="#007cba" fill-rule="evenodd" d="M23.5 37.6c-1.1-1.1-2.9-1.1-4 0s-1.1 2.9 0 4l13 13c.6.6 1.2.8 2 .8h.1c.8-.1 1.5-.4 2.1-1l32.6-39c1-1.2.8-3-.3-4-1.2-1-3-.8-4 .3L34.3 48.5 23.5 37.6" clip-rule="evenodd"/>
	<path fill="#081e2c" fill-rule="evenodd" d="M61.1 6.1c-15.9-9.9-36.2-7.6-49.4 5.6-15.6 15.6-15.6 41 0 56.5C19.5 76.1 29.8 80 40 80s20.5-3.9 28.3-11.7C81.5 55 83.8 34.6 73.8 18.8c-.8-1.3-2.6-1.7-3.9-.9-1.3.8-1.7 2.5-.9 3.9 8.6 13.6 6.6 31.1-4.8 42.6-13.4 13.4-35.2 13.4-48.6 0C2.2 51 2.2 29.2 15.6 15.9c11.5-11.5 28.9-13.5 42.6-5 1.3.8 3 .4 3.9-.9.7-1.3.3-3.1-1-3.9" clip-rule="evenodd"/>
</svg>