{
	"asset":{
		"version":"2.0",
		"generator":"Houdini GLTF 2.0 Exporter"
	},
	"accessors":[
		{
			"bufferView":0,
			"componentType":5125,
			"count":48492,
			"type":"SCALAR",
			"min":[0
			],
			"max":[8093
			]
		},
		{
			"bufferView":1,
			"componentType":5126,
			"count":8094,
			"type":"VEC3",
			"min":[-3.11275005,-0.539000034,0
			],
			"max":[3.11275005,0.371500015,0.373000026
			]
		}
	],
	"buffers":[
		{
			"uri":"test_01_data.bin",
			"byteLength":291096,
			"name":"main_buffer"
		}
	],
	"bufferViews":[
		{
			"buffer":0,
			"byteLength":193968,
			"target":34963
		},
		{
			"buffer":0,
			"byteOffset":193968,
			"byteLength":97128,
			"target":34962
		}
	],
	"nodes":[
		{
			"name":"font1",
			"mesh":0
		}
	],
	"meshes":[
		{
			"primitives":[
				{
					"attributes":{
						"POSITION":1
					},
					"indices":0
				}
			]
		}
	],
	"scenes":[
		{
			"nodes":[0
			]
		}
	],
	"scene":0
}
